<svg width="48" height="48" fill="none" xmlns="http://www.w3.org/2000/svg"><path d="M38 28.667A5.333 5.333 0 0132.667 34H9.333A5.333 5.333 0 014 28.667V14h34v14.667z" fill="#FF6153"></path><path d="M13 20h25v8.667A5.333 5.333 0 0132.667 34H9.333A5.333 5.333 0 014 28.667V28h6.333A2.667 2.667 0 0013 25.333V20z" fill="#A03027"></path><path d="M44 28a6 6 0 01-6 6H9.333A5.667 5.667 0 0015 28.333V22h29v6z" fill="#FF6153"></path><path d="M4 28.667V28h10.667v.667a5.333 5.333 0 01-10.667 0zM14.667 20.667V28H7.334A5.667 5.667 0 0013 22.334v-1.667h1.667z" fill="#A03027"></path></svg>