<svg width="48" height="48" viewBox="0 0 48 48" fill="none" xmlns="http://www.w3.org/2000/svg"><path d="M11 33h17v2h3v3h3v3h3v3H11V33z" fill="#FF6153"></path><path fill-rule="evenodd" clip-rule="evenodd" d="M13 14h-2v26h2V14zm15 0h-2v26h2V14z" fill="#FF6153"></path><path d="M28 14H11v7a7.954 7.954 0 017.385-5H28v-2z" fill="#A03027"></path><path d="M11 4h12l8 10H11V4z" fill="#FF6153"></path><path d="M17 16h5v.5a2.5 2.5 0 01-5 0V16z" fill="#A03027"></path><path fill="#FF6153" d="M27 26v2H12v-2z"></path><path fill-rule="evenodd" clip-rule="evenodd" d="M13 26h-2v9h2v-9zm3 0h-2v9h2v-9zm1 0h2v9h-2v-9zm5 0h-2v9h2v-9zm1 0h2v9h-2v-9zm5 0h-2v9h2v-9z" fill="#FF6153"></path><path fill-rule="evenodd" clip-rule="evenodd" d="M13 28h-2v7a7.94 7.94 0 012-2.9V28zm3 2.366a7.959 7.959 0 00-2 .952V28h2v2.366zM19 30h-.615c-.47 0-.933.041-1.385.121V28h2v2zm3 0h-2v-2h2v2zm3 0h-2v-2h2v2zm3 0h-2v-2h2v2z" fill="#A03027"></path><path d="M28 44v-9h3v3h3v3h3v3h-9z" fill="#A03027"></path></svg>