<svg width="48" height="48" viewBox="0 0 48 48" fill="none" xmlns="http://www.w3.org/2000/svg"><path d="M6 28h22V16H6v12zm24 2v4h12v-4H30zm-2-2a2 2 0 012 2h12c0-7.732-6.268-14-14-14v12z" fill="#FF6153"></path><path d="M4 12h7a3 3 0 013 3v14a3 3 0 01-3 3H4V12z" fill="#FF6153"></path><path d="M35.449 37.26a.601.601 0 011.102 0l1.546 3.534a2.289 2.289 0 11-4.194 0l1.546-3.534z" fill="#A03027"></path><path fill-rule="evenodd" clip-rule="evenodd" d="M9 5.5h16V8h-2a4 4 0 00-4 4v5h-3v-5a4 4 0 00-4-4H9V5.5z" fill="#FF6153"></path><circle r="3" transform="matrix(-1 0 0 1 26 7)" fill="#FF6153"></circle><circle r="3" transform="matrix(-1 0 0 1 9 7)" fill="#FF6153"></circle><path d="M14 16v12h10l-.469-.217A12.984 12.984 0 0116.004 16L14 16z" fill="#A03027"></path></svg>