<svg width="48" height="48" fill="none" xmlns="http://www.w3.org/2000/svg"><path d="M28 16.47v-2.529h-8v2.53c0 .442-.098.88-.287 1.28l-3.426 7.26a3 3 0 00-.287 1.28v14.71a3 3 0 003 3h10a3 3 0 003-3V26.29a3 3 0 00-.287-1.28l-3.426-7.26a3.001 3.001 0 01-.287-1.28z" fill="#FF6153"></path><path d="M20 10.608h8v6.333A8.349 8.349 0 0021.64 14H20v-3.392zM26 29H16v8h10v-8z" fill="#A03027"></path><path fill-rule="evenodd" clip-rule="evenodd" d="M20 6c0 3.266-2.734 6-6 6v2a8 8 0 008-8h-2z" fill="#FF6153"></path><path d="M14.267 7.333h1.067V4.667h-1.067c-.172 0-.34.06-.472.17l-.41.343a1.067 1.067 0 000 1.64l.41.343c.133.11.3.17.472.17z" fill="#FF6153"></path><path d="M32 12V7a3 3 0 00-3-3H15v3.004a3 3 0 001.41 2.544l3.194 1.996a3 3 0 001.59.456H32z" fill="#FF6153"></path></svg>