<svg xmlns="http://www.w3.org/2000/svg" width="100" height="100" viewBox="0 0 100 100" version="1.1"><path d="M 32.217 19 C 31.656 20.375, 27.777 28.644, 23.598 37.375 L 16 53.250 16 68.990 L 16 84.730 18.073 87.365 L 20.145 90 51.898 90 L 83.651 90 85.826 87.686 L 88 85.371 88 68.686 L 88 52 69.027 52 L 50.054 52 44.508 40.250 C 41.457 33.788, 37.674 25.800, 36.099 22.500 L 33.237 16.500 32.217 19" stroke="none" fill="#643cb4" fill-rule="evenodd"/><path d="M 20.497 31.005 L 9.966 52.050 11.425 52.609 C 15.161 54.043, 16.494 52.281, 24.628 35.149 C 29.157 25.609, 33.032 17.634, 33.240 17.427 C 33.447 17.219, 37.252 24.801, 41.694 34.275 L 49.772 51.500 71.636 52.053 C 83.661 52.358, 93.685 52.473, 93.910 52.310 C 94.136 52.146, 89.584 42.672, 83.796 31.256 L 73.271 10.500 52.150 10.230 L 31.029 9.960 20.497 31.005" stroke="none" fill="#9b6bf3" fill-rule="evenodd"/></svg>