<svg xmlns="http://www.w3.org/2000/svg" width="192" height="192" viewBox="0 0 192 192" version="1.1"><path d="M 79.999 51.603 L 80 55.707 87.595 56.349 C 96.541 57.105, 102.203 59.382, 107.872 64.504 L 112 68.233 112 58.164 L 112 48.095 95.999 47.798 L 79.997 47.500 79.999 51.603 M 64 132 L 64 148 84 148 L 104 148 104 132 L 104 116 84 116 L 64 116 64 132" stroke="none" fill="#4c24a4" fill-rule="evenodd"/><path d="M 60 16.892 C 60 17.382, 58.765 18.093, 57.256 18.472 C 53.313 19.461, 52 20.859, 52 24.066 C 52 26.990, 55.045 30, 58.003 30 C 58.860 30, 60.059 31.318, 60.667 32.928 C 61.275 34.539, 63.606 37.127, 65.848 38.678 C 68.090 40.230, 69.941 41.860, 69.962 42.299 C 70.021 43.535, 61.830 46.953, 58.750 46.978 L 56 47 56 51.500 L 56 56 58.874 56 C 62.750 56, 69.644 53.488, 74.420 50.335 L 78.339 47.747 103.170 47.932 L 128 48.118 128 35.459 L 128 22.800 124.600 19.400 L 121.200 16 90.600 16 C 73.347 16, 60 16.389, 60 16.892 M 79.770 62.615 L 79.253 69.500 71.633 85.500 L 64.012 101.500 64.006 108.750 L 64 116 84 116 L 104 116 104 132 L 104 148 84 148 L 64 148 64 158.600 L 64 169.200 67.400 172.600 L 70.800 176 95.829 176 L 120.858 176 124.429 172.632 L 128 169.264 128 135.382 L 128 101.500 120.500 85.599 C 116.375 76.853, 113 69.015, 113 68.182 C 113 67.349, 112.708 66.959, 112.351 67.315 C 111.995 67.672, 109.912 66.346, 107.724 64.369 C 102.224 59.401, 96.482 57.100, 87.739 56.361 L 80.288 55.731 79.770 62.615" stroke="none" fill="#633bb3" fill-rule="evenodd"/></svg>