<svg xmlns="http://www.w3.org/2000/svg" width="192" height="192" viewBox="0 0 192 192" version="1.1"><path d="M 31.400 19.400 L 28 22.800 28 99.400 L 28 176 55.964 176 L 83.928 176 84.214 140.091 L 84.500 104.183 87.602 100.341 L 90.705 96.500 95.352 96.195 L 100 95.890 100 59.345 L 100 22.800 96.600 19.400 L 93.200 16 64 16 L 34.800 16 31.400 19.400 M 84 62 L 84 76 88 76 L 92 76 92 62 L 92 48 88 48 L 84 48 84 62 M 101.200 125.200 C 99.520 126.880, 99.520 157.120, 101.200 158.800 C 102.900 160.500, 145.100 160.500, 146.800 158.800 C 148.480 157.120, 148.480 126.880, 146.800 125.200 C 145.100 123.500, 102.900 123.500, 101.200 125.200" stroke="none" fill="#4c24a4" fill-rule="evenodd"/><path d="M 84 62 L 84 76 88 76 L 92 76 92 62 L 92 48 88 48 L 84 48 84 62 M 89.241 98.250 C 88.081 99.487, 86.431 101.850, 85.573 103.500 L 84.012 106.500 84.006 141.250 L 84 176 124 176 L 164 176 164 140.003 L 164 104.006 160.384 100.003 L 156.767 96 124.058 96 L 91.349 96 89.241 98.250 M 101.200 125.200 C 99.520 126.880, 99.520 157.120, 101.200 158.800 C 102.900 160.500, 145.100 160.500, 146.800 158.800 C 148.480 157.120, 148.480 126.880, 146.800 125.200 C 145.100 123.500, 102.900 123.500, 101.200 125.200" stroke="none" fill="#633bb3" fill-rule="evenodd"/></svg>