<svg width="192.000000pt" height="192.000000pt" viewBox="0 0 192.000000 192.000000" xmlns="http://www.w3.org/2000/svg">
  <g transform="translate(0.000000,192.000000) scale(0.100000,-0.100000)" fill="#ffffff" stroke="none">
    <path d="M0 960 l0 -960 960 0 960 0 0 960 0 960 -960 0 -960 0 0 -960z m558
626 l72 -74 0 -221 0 -221 90 0 90 0 0 221 0 222 75 76 75 76 75 -76 75 -76 0
-222 0 -221 90 0 90 0 0 221 0 222 75 76 75 76 75 -76 75 -76 0 -221 0 -221
78 -3 77 -3 0 -205 0 -205 -77 -3 -78 -3 0 -199 0 -200 -150 0 -150 0 0 200 0
200 -90 0 -90 0 0 -200 0 -200 -150 0 -150 0 0 200 0 200 -90 0 -90 0 0 -200
0 -200 -150 0 -150 0 0 200 0 199 -77 3 -78 3 0 205 0 205 78 3 77 3 0 220 0
221 72 74 c39 41 74 74 78 74 4 0 39 -33 78 -74z" />
  </g>
  <g transform="translate(0.000000,192.000000) scale(0.100000,-0.100000)" fill="#673ab7" stroke="none">
    <path d="M397 1601 l-77 -79 0 -220 0 -221 -77 -3 -78 -3 0 -215 0 -215 78 -3
77 -3 0 -199 0 -200 160 0 160 0 0 200 0 200 80 0 80 0 0 -200 0 -200 160 0
160 0 0 200 0 200 80 0 80 0 0 -200 0 -200 160 0 160 0 0 200 0 199 78 3 77 3
0 215 0 215 -77 3 -78 3 0 221 0 221 -80 81 -80 81 -80 -81 -80 -81 0 -222 0
-221 -80 0 -80 0 0 221 0 222 -80 81 -80 81 -80 -81 -80 -81 0 -222 0 -221
-80 0 -80 0 0 221 0 221 -77 79 c-42 44 -79 79 -83 79 -4 0 -41 -35 -83 -79z" />
  </g>
  <g transform="translate(0.000000,192.000000) scale(0.100000,-0.100000)" fill="#b29cdb" stroke="none">
    <path d="M498 1655 c16 -14 55 -52 86 -85 31 -34 56 -58 56 -54 0 10 -152 164
-163 164 -4 0 5 -11 21 -25z" />
    <path d="M978 1655 c16 -14 55 -52 86 -85 31 -34 56 -58 56 -54 0 10 -152 164
-163 164 -4 0 5 -11 21 -25z" />
    <path d="M1458 1655 c16 -14 55 -52 86 -85 31 -34 56 -58 56 -54 0 10 -152
164 -163 164 -4 0 5 -11 21 -25z" />
    <path d="M1301 1544 c-12 -15 -21 -34 -20 -43 l0 -16 10 25 c6 13 17 33 26 42
9 10 13 18 10 18 -3 0 -15 -12 -26 -26z" />
    <path d="M326 1525 c-3 -9 -6 -22 -5 -28 0 -7 5 -1 10 12 5 13 8 26 5 28 -2 2
-6 -3 -10 -12z" />
    <path d="M806 1525 c-3 -9 -6 -22 -5 -28 0 -7 5 -1 10 12 5 13 8 26 5 28 -2 2
-6 -3 -10 -12z" />
  </g>
  <g transform="translate(0.000000,192.000000) scale(0.100000,-0.100000)" fill="#c6b4e3" stroke="none">
    <path d="M405 1608 l-70 -73 73 70 c39 38 72 71 72 72 0 8 -11 -2 -75 -69z" />
    <path d="M885 1608 l-70 -73 73 70 c39 38 72 71 72 72 0 8 -11 -2 -75 -69z" />
    <path d="M615 1540 c3 -5 8 -10 11 -10 3 0 2 5 -1 10 -3 6 -8 10 -11 10 -3 0
-2 -4 1 -10z" />
    <path d="M1095 1540 c3 -5 8 -10 11 -10 3 0 2 5 -1 10 -3 6 -8 10 -11 10 -3 0
-2 -4 1 -10z" />
    <path d="M1575 1540 c3 -5 8 -10 11 -10 3 0 2 5 -1 10 -3 6 -8 10 -11 10 -3 0
-2 -4 1 -10z" />
    <path d="M631 1504 l1 -19 5 13 c3 7 2 16 -1 19 -3 4 -6 -2 -5 -13z" />
    <path d="M1111 1504 l1 -19 5 13 c3 7 2 16 -1 19 -3 4 -6 -2 -5 -13z" />
    <path d="M1591 1504 l1 -19 5 13 c3 7 2 16 -1 19 -3 4 -6 -2 -5 -13z" />
  </g>
  <g transform="translate(0.000000,192.000000) scale(0.100000,-0.100000)" fill="#e7e0f3" stroke="none">
    <path d="M334 1538 l-7 -11 11 7 c12 7 16 16 8 16 -3 0 -8 -5 -12 -12z" />
    <path d="M814 1538 l-7 -11 11 7 c7 4 12 9 12 12 0 8 -9 4 -16 -8z" />
    <path d="M1294 1538 l-7 -11 11 7 c7 4 12 9 12 12 0 8 -9 4 -16 -8z" />
    <path d="M165 1069 c-11 -17 1 -21 15 -4 l12 15 -10 0 c-6 0 -14 -5 -17 -11z" />
    <path d="M1740 1065 c7 -9 15 -13 17 -11 7 7 -7 26 -19 26 l-10 0 12 -15z" />
    <path d="M160 662 c0 -12 19 -26 26 -19 2 2 -2 10 -11 17 l-15 12 0 -10z" />
    <path d="M1740 655 l-12 -15 10 0 c12 0 26 19 19 26 -2 2 -10 -2 -17 -11z" />
  </g>
  <g transform="translate(0.000000,192.000000) scale(0.100000,-0.100000)" fill="#a084d2" stroke="none">
    <path d="M1375 1618 l-60 -63 63 60 c58 55 67 65 59 65 -1 0 -29 -28 -62 -62z" />
  </g>
  <g transform="translate(0.000000,192.000000) scale(0.100000,-0.100000)" fill="#6c40b8" stroke="none">
    <path d="M170 1065 c-19 -22 -8 -25 13 -3 9 10 13 18 8 18 -5 0 -14 -7 -21
-15z" />
    <path d="M1738 1062 c9 -10 19 -17 21 -16 6 5 -20 34 -30 34 -5 0 -1 -8 9 -18z" />
    <path d="M160 671 c0 -10 29 -36 34 -30 1 2 -6 12 -16 22 -10 9 -18 13 -18 8z" />
    <path d="M1738 658 c-10 -10 -14 -18 -9 -18 10 0 36 29 30 34 -2 1 -12 -6 -21
-16z" />
  </g>
  <g transform="translate(0.000000,192.000000) scale(0.100000,-0.100000)" fill="#9677cd" stroke="none" />
  <g transform="translate(0.000000,192.000000) scale(0.100000,-0.100000)" fill="#7a52c0" stroke="none">
    <path d="M320 1490 c0 -7 3 -10 7 -7 3 4 3 10 0 14 -4 3 -7 0 -7 -7z" />
    <path d="M630 1490 c0 -7 3 -10 7 -7 3 4 3 10 0 14 -4 3 -7 0 -7 -7z" />
    <path d="M800 1490 c0 -7 3 -10 7 -7 3 4 3 10 0 14 -4 3 -7 0 -7 -7z" />
    <path d="M1110 1490 c0 -7 3 -10 7 -7 3 4 3 10 0 14 -4 3 -7 0 -7 -7z" />
    <path d="M1280 1490 c0 -7 3 -10 7 -7 3 4 3 10 0 14 -4 3 -7 0 -7 -7z" />
    <path d="M1590 1490 c0 -7 3 -10 7 -7 3 4 3 10 0 14 -4 3 -7 0 -7 -7z" />
  </g>
  <g transform="translate(0.000000,192.000000) scale(0.100000,-0.100000)" fill="#8d6ac9" stroke="none" />
  <g transform="translate(0.000000,192.000000) scale(0.100000,-0.100000)" fill="#d9ceec" stroke="none" />
  <g transform="translate(0.000000,192.000000) scale(0.100000,-0.100000)" fill="#000000" stroke="none" />
  <g transform="translate(0.000000,192.000000) scale(0.100000,-0.100000)" fill="#000000" stroke="none" />
  <g transform="translate(0.000000,192.000000) scale(0.100000,-0.100000)" fill="#000000" stroke="none" />
  <g transform="translate(0.000000,192.000000) scale(0.100000,-0.100000)" fill="#000000" stroke="none" />
  <g transform="translate(0.000000,192.000000) scale(0.100000,-0.100000)" fill="#000000" stroke="none" />
  <g transform="translate(0.000000,192.000000) scale(0.100000,-0.100000)" fill="#000000" stroke="none" />
  <g transform="translate(0.000000,192.000000) scale(0.100000,-0.100000)" fill="#0000ff" stroke="none" />
  <g transform="translate(0.000000,192.000000) scale(0.100000,-0.100000)" fill="#ffffff" stroke="none" />
  <g transform="translate(0.000000,192.000000) scale(0.100000,-0.100000)" fill="#00ffff" stroke="none" />
  <g transform="translate(0.000000,192.000000) scale(0.100000,-0.100000)" fill="#ff00ff" stroke="none" />
  <g transform="translate(0.000000,192.000000) scale(0.100000,-0.100000)" fill="#000000" stroke="none" />
  <g transform="translate(0.000000,192.000000) scale(0.100000,-0.100000)" fill="#ffff00" stroke="none" />
  <g transform="translate(0.000000,192.000000) scale(0.100000,-0.100000)" fill="#000000" stroke="none" />
  <g transform="translate(0.000000,192.000000) scale(0.100000,-0.100000)" fill="#000000" stroke="none" />
</svg>