<svg xmlns="http://www.w3.org/2000/svg" width="192" height="192" viewBox="0 0 192 192" version="1.1"><path d="M 36 56 L 36 60 44.779 60 L 53.558 60 59.917 66.417 L 66.277 72.833 65.721 74.958 L 65.165 77.083 69.213 73.427 C 73.936 69.159, 81.722 65.376, 87.750 64.419 L 92 63.744 92 102.872 L 92 142 96 142 L 100 142 100 103 L 100 64 110.301 64 L 120.601 64 122.865 68.659 L 125.129 73.319 131.839 66.659 L 138.550 60 147.275 60 L 156 60 156 56 L 156 52 145.037 52 L 134.073 52 127.590 58.065 L 121.107 64.129 119.033 60.065 L 116.959 56 96 56 L 75.041 56 72.952 60.093 L 70.864 64.187 64.519 58.093 L 58.173 52 47.087 52 L 36 52 36 56" stroke="none" fill="#4c24a4" fill-rule="evenodd"/><path d="M 60.186 22.114 L 60.500 26.485 65.080 27.135 C 70.559 27.913, 76.623 30.866, 79.856 34.330 L 82.212 36.855 79.413 40.525 L 76.613 44.196 76.187 50.098 L 75.760 56 96 56 L 116.240 56 115.813 50.098 L 115.387 44.196 112.587 40.525 L 109.788 36.855 112.144 34.330 C 115.377 30.866, 121.441 27.913, 126.920 27.135 L 131.500 26.485 131.807 22.243 L 132.115 18 128.713 18 C 123.317 18, 114.559 21.358, 109.102 25.520 C 106.339 27.627, 103.851 29.946, 103.571 30.675 C 103.223 31.583, 101.058 32, 96.694 32 L 90.326 32 85.969 27.856 C 80.519 22.671, 72.110 18.757, 65.186 18.183 L 59.872 17.742 60.186 22.114 M 83.286 65.451 C 77.237 67.341, 70.760 71.370, 67.137 75.497 L 64 79.070 64 88.072 L 64 97.075 58.055 93.037 C 53.828 90.167, 51.068 89, 48.505 89 C 44.210 89, 39.713 91.143, 37.561 94.217 L 36 96.445 36 110.223 L 36 124 40 124 L 44 124 44 112.934 C 44 96.104, 45.380 95.018, 56.661 102.966 L 63.709 107.931 64.288 118.216 C 64.607 123.872, 65.515 130.894, 66.305 133.819 L 67.743 139.139 62.510 141.453 C 55.213 144.680, 54 146.785, 54 156.223 L 54 164 58 164 L 62 164 62 157.985 L 62 151.971 65.250 149.989 C 67.037 148.899, 69.008 148.006, 69.628 148.004 C 70.249 148.002, 71.785 150.813, 73.043 154.250 C 77.323 165.945, 79.790 169.911, 84.737 173.048 L 89.392 176 95.236 176 C 101.795 176, 106.898 173.871, 111.196 169.342 C 113.835 166.561, 115.953 162.296, 119.433 152.750 C 120.386 150.137, 121.691 148.002, 122.333 148.004 C 122.975 148.006, 124.963 148.899, 126.750 149.989 L 130 151.971 130 157.985 L 130 164 134 164 L 138 164 138 155.605 L 138 147.210 135.646 144.944 C 134.351 143.697, 131.313 141.887, 128.896 140.921 C 126.478 139.955, 124.573 138.790, 124.662 138.332 C 124.751 137.874, 125.539 134.031, 126.412 129.792 C 127.285 125.553, 128 118.927, 128 115.068 L 128 108.052 135.157 103.026 C 146.600 94.990, 148 96.070, 148 112.934 L 148 124 152 124 L 156 124 156 110.223 L 156 96.445 154.439 94.217 C 152.312 91.180, 147.804 89, 143.651 89 C 141.293 89, 138.351 90.246, 134.351 92.939 L 128.500 96.877 127.987 87.189 L 127.475 77.500 124.011 70.750 L 120.547 64 110.274 64 L 100 64 100 103 L 100 142 96 142 L 92 142 92 103 L 92 64 89.750 64.067 C 88.513 64.104, 85.604 64.726, 83.286 65.451" stroke="none" fill="#643cb4" fill-rule="evenodd"/></svg>