<?xml version="1.0" standalone="no"?>
<!DOCTYPE svg PUBLIC "-//W3C//DTD SVG 20010904//EN"
 "http://www.w3.org/TR/2001/REC-SVG-20010904/DTD/svg10.dtd">
<svg version="1.0" xmlns="http://www.w3.org/2000/svg"
 width="192.000000pt" height="192.000000pt" viewBox="0 0 192.000000 192.000000"
 preserveAspectRatio="xMidYMid meet">

<g transform="translate(0.000000,192.000000) scale(0.100000,-0.100000)"
fill="#000000" stroke="none">
<path d="M408 1603 c-36 -38 -71 -78 -77 -90 -7 -14 -11 -96 -11 -227 l0 -206
-64 0 c-98 0 -96 4 -96 -220 0 -224 -2 -220 96 -220 l64 0 0 -200 0 -200 160
0 160 0 0 200 0 200 80 0 80 0 0 -200 0 -200 160 0 160 0 0 200 0 200 80 0 80
0 0 -200 0 -200 160 0 160 0 0 200 0 200 64 0 c98 0 96 -4 96 220 0 224 2 220
-96 220 l-64 0 0 205 c0 159 -3 212 -14 233 -8 15 -44 56 -80 92 l-66 64 -66
-64 c-36 -36 -72 -77 -80 -92 -11 -21 -14 -74 -14 -233 l0 -205 -80 0 -80 0 0
205 c0 159 -3 212 -14 233 -8 15 -44 56 -80 92 l-66 64 -66 -64 c-36 -36 -72
-77 -80 -92 -11 -21 -14 -74 -14 -233 l0 -205 -80 0 -80 0 0 206 c0 131 -4
213 -11 227 -12 23 -139 157 -149 157 -3 0 -35 -30 -72 -67z"/>
</g>
</svg>
