<svg xmlns="http://www.w3.org/2000/svg" width="100" height="100" viewBox="0 0 100 100" version="1.1"><path d="M 45.094 29.937 C 41.192 35.402, 38 40.127, 38 40.437 C 38 40.746, 40.306 41, 43.125 41 L 48.250 41 47.598 44.250 C 45.147 56.479, 44.959 56.446, 53.859 45.365 C 58.337 39.791, 62 34.954, 62 34.615 C 62 34.277, 59.685 34, 56.856 34 L 51.713 34 52.363 27 C 52.721 23.150, 52.828 20, 52.601 20 C 52.374 20, 48.996 24.471, 45.094 29.937" stroke="none" fill="#9868f0" fill-rule="evenodd"/><path d="M 40.882 9.320 C 28.024 14.130, 20.657 24.407, 20.680 37.500 C 20.699 48.484, 25.611 57.344, 34.605 62.615 C 38.951 65.161, 39 65.252, 39 70.672 C 39 75.398, 39.403 76.557, 41.923 79.077 C 44.467 81.620, 45.583 82, 50.517 82 C 55.255 82, 56.269 81.686, 56.686 80.092 C 56.960 79.043, 58.043 77.960, 59.092 77.686 C 60.702 77.265, 61 76.249, 61 71.189 L 61 65.190 65.395 62.615 C 74.530 57.261, 79.322 48.572, 79.329 37.351 C 79.336 25.524, 73.650 16.450, 62.722 10.848 C 57.459 8.150, 46.128 7.357, 40.882 9.320 M 45.094 29.937 C 41.192 35.402, 38 40.127, 38 40.437 C 38 40.746, 40.306 41, 43.125 41 L 48.250 41 47.598 44.250 C 45.147 56.479, 44.959 56.446, 53.859 45.365 C 58.337 39.791, 62 34.954, 62 34.615 C 62 34.277, 59.685 34, 56.856 34 L 51.713 34 52.363 27 C 52.721 23.150, 52.828 20, 52.601 20 C 52.374 20, 48.996 24.471, 45.094 29.937 M 43 85.865 C 43 86.341, 43.933 87.916, 45.073 89.365 C 48.446 93.654, 54.762 92.475, 56.422 87.246 C 57.115 85.063, 56.938 85, 50.067 85 C 46.180 85, 43 85.389, 43 85.865" stroke="none" fill="#643cb4" fill-rule="evenodd"/></svg>