<svg width="48" height="48" fill="none" xmlns="http://www.w3.org/2000/svg"><path fill-rule="evenodd" clip-rule="evenodd" d="M8 11.242a3 3 0 01.879-2.12L12 6l3.121 3.121A3 3 0 0116 11.242V42H8V11.242zm12 0a3 3 0 01.879-2.12L24 6l3.121 3.121A3 3 0 0128 11.242V42h-8V11.242zm12.879-2.12a3 3 0 00-.879 2.12V42h8V11.242a3 3 0 00-.879-2.12L36 6 32.879 9.12z" fill="#FF6153"></path><rect x="4" y="21" width="40" height="11" rx="1" fill="#FF6153"></rect><mask id="FenceRepair_svg__a" x="8" y="5" width="32" height="37"><path fill-rule="evenodd" clip-rule="evenodd" d="M8 10l4-4 4 4v32H8V10zm12 .414a1 1 0 01.293-.707l3-3a1 1 0 011.414 0l3 3a1 1 0 01.293.707V40a2 2 0 01-2 2h-4a2 2 0 01-2-2V10.414zm12.293-.707a1 1 0 00-.293.707V40a2 2 0 002 2h4a2 2 0 002-2V10.414a1 1 0 00-.293-.707l-3-3a1 1 0 00-1.414 0l-3 3z" fill="#C4C4C4"></path></mask><g mask="url(#FenceRepair_svg__a)"><path d="M40 32H8v7a7.954 7.954 0 017.385-5H40v-2z" fill="#A03027"></path></g></svg>