<svg xmlns="http://www.w3.org/2000/svg" width="192" height="192" viewBox="0 0 192 192" version="1.1"><path d="M 51.978 86.750 C 51.943 97.421, 47.769 104.960, 39.500 109.288 L 35.500 111.381 25.636 111.812 L 15.772 112.242 16.221 117.656 C 17.094 128.176, 25.824 136, 36.689 136 C 46.414 136, 53.350 131.526, 57.617 122.500 L 59.980 117.500 59.990 102.750 L 60 88 106 88 L 152 88 152 84 L 152 80 102 80 L 52 80 51.978 86.750" stroke="none" fill="#4c24a4" fill-rule="evenodd"/><path d="M 16 84.116 L 16 112.233 25.750 111.807 L 35.500 111.381 39.500 109.288 C 47.769 104.960, 51.943 97.421, 51.978 86.750 L 52 80 102 80 L 152 80 152 68 L 152 56 84 56 L 16 56 16 84.116 M 59.990 102.750 L 59.980 117.500 57.617 122.500 C 54.902 128.242, 51.019 132.226, 46 134.419 L 42.500 135.947 101.079 135.724 L 159.659 135.500 164.553 132.474 C 167.581 130.601, 170.601 127.583, 172.474 124.557 L 175.500 119.667 175.819 103.833 L 176.138 88 118.069 88 L 60 88 59.990 102.750" stroke="none" fill="#633bb3" fill-rule="evenodd"/></svg>