<svg xmlns="http://www.w3.org/2000/svg" width="152" height="152" viewBox="0 0 152 152" version="1.1"><path d="M 22.044 88.250 L 22.088 100.500 23.970 96.941 C 29.024 87.383, 36.811 83.090, 50.587 82.268 L 60 81.706 60 84.679 C 60 86.493, 60.902 88.499, 62.314 89.826 C 64.414 91.798, 65.698 92, 76.140 92 C 86.880 92, 87.797 91.845, 89.826 89.686 C 91.022 88.413, 92 86.163, 92 84.686 L 92 82 111 82 L 130 82 130 79 L 130 76 76 76 L 22 76 22.044 88.250" stroke="none" fill="#9b6bf3" fill-rule="evenodd"/><path d="M 62.030 26.279 C 57.902 28.368, 55 33.680, 55 39.148 L 55 44 37.750 44.014 C 28.262 44.021, 19.493 44.297, 18.261 44.627 C 17.030 44.957, 15.118 46.692, 14.011 48.482 C 12.286 51.274, 12 53.459, 12 63.868 L 12 76 76 76 L 140 76 139.964 63.250 C 139.930 51.231, 139.788 50.328, 137.479 47.500 L 135.030 44.500 116.015 44.189 L 97 43.879 97 39.390 C 97 33.760, 94.830 29.477, 90.701 26.960 C 88.013 25.320, 85.658 25.009, 76 25.018 C 68.806 25.025, 63.575 25.497, 62.030 26.279 M 64.455 34.455 C 62.772 36.138, 62 38.024, 62 40.455 L 62 44 76 44 L 90 44 90 40.455 C 90 38.024, 89.228 36.138, 87.545 34.455 C 85.299 32.208, 84.319 32, 76 32 C 67.681 32, 66.701 32.208, 64.455 34.455 M 42.326 83.044 C 36.899 84.117, 33.275 86.064, 29.170 90.111 C 23.295 95.902, 22 99.683, 22 111.037 C 22 120.885, 22.078 121.231, 24.923 124.077 L 27.846 127 76 127 L 124.154 127 127.077 124.077 L 130 121.154 130 101.577 L 130 82 111 82 L 92 82 92 84.826 C 92 86.486, 91.046 88.548, 89.686 89.826 C 87.586 91.798, 86.302 92, 75.860 92 C 65.120 92, 64.203 91.845, 62.174 89.686 C 60.978 88.413, 60 86.163, 60 84.686 C 60 82.026, 59.935 82.001, 53.250 82.110 C 49.538 82.170, 44.622 82.590, 42.326 83.044" stroke="none" fill="#643cb4" fill-rule="evenodd"/></svg>