<svg xmlns="http://www.w3.org/2000/svg" width="100" height="100" viewBox="0 0 100 100" version="1.1"><path d="M 30.510 18.983 C 29.346 20.868, 20 60.053, 20 63.053 C 20 72.266, 29.855 77.595, 39.466 73.579 C 46.167 70.779, 48.216 60.772, 43.384 54.437 C 41.945 52.550, 40.666 49.712, 40.542 48.129 C 40.417 46.546, 39.391 43.953, 38.261 42.367 C 35.787 38.892, 35.412 36.764, 36.346 31.500 C 37.627 24.277, 33.160 14.696, 30.510 18.983 M 66.200 78.200 C 65.540 78.860, 65 80.210, 65 81.200 C 65 82.693, 65.852 83, 70 83 C 74.148 83, 75 82.693, 75 81.200 C 75 80.210, 74.460 78.860, 73.800 78.200 C 72.253 76.653, 67.747 76.653, 66.200 78.200 M 26 79.800 C 26 81.386, 28.449 83, 30.855 83 C 33.247 83, 33.263 82.948, 31.500 81 C 29.724 79.038, 26 78.225, 26 79.800" stroke="none" fill="#9b6bf3" fill-rule="evenodd"/><path d="M 56.182 10.500 C 54.548 11.875, 52.016 13, 50.556 13 C 44.451 13, 40 17.658, 40 24.047 C 40 25.671, 39.605 27, 39.121 27 C 37.800 27, 35.688 32.739, 35.783 36.071 C 35.829 37.684, 36.893 40.445, 38.148 42.207 C 39.402 43.969, 40.480 46.106, 40.543 46.955 C 40.606 47.805, 40.735 49.240, 40.829 50.144 C 40.923 51.049, 42.306 53.186, 43.901 54.894 C 46.054 57.199, 47.685 58, 50.227 58 C 52.513 58, 54.374 58.769, 55.826 60.314 C 57.764 62.378, 58 63.733, 58 72.814 L 58 83 48 83 L 38 83 38 78.743 L 38 74.486 33.500 74.843 C 28.333 75.254, 27.660 76.945, 31.174 80.686 L 33.349 83 30.897 83 C 29.425 83, 27.394 81.802, 25.813 80 C 23.674 77.563, 22.394 77, 18.990 77 C 15.558 77, 14.185 77.615, 11.400 80.400 C 7.832 83.968, 6.878 88.478, 9.200 90.800 C 10.092 91.692, 20.356 92, 49.200 92 C 86.667 92, 88.069 91.931, 90 90 C 91.100 88.900, 92 86.875, 92 85.500 L 92 83 78.500 83 C 65.803 83, 65 82.884, 65 81.059 C 65 79.991, 65.450 78.840, 66 78.500 C 66.550 78.160, 67 74.387, 67 70.115 C 67 63.290, 67.280 62.085, 69.314 60.174 C 70.721 58.853, 72.917 58, 74.914 58 C 79.451 58, 85 52.495, 85 47.994 C 85 46.034, 85.971 43.635, 87.500 41.818 C 88.959 40.084, 90 37.589, 90 35.828 C 90 32.784, 87.238 27, 85.784 27 C 85.353 27, 85 25.380, 85 23.400 C 85 18.321, 79.679 13, 74.600 13 C 72.620 13, 71 12.647, 71 12.216 C 71 10.762, 65.216 8, 62.172 8 C 60.411 8, 57.916 9.041, 56.182 10.500" stroke="none" fill="#643cb4" fill-rule="evenodd"/></svg>