<svg width="48" height="48" viewBox="0 0 48 48" fill="none" xmlns="http://www.w3.org/2000/svg"><path d="M21 21l-6.56-6.56a1.5 1.5 0 00-1.061-.44H9" stroke="#A03027" stroke-width="2"></path><path d="M23 30.5l-9.862-6.827c-1.326-.919-3.138.03-3.138 1.644V31M23 33.5l-7.571 3.117a1.5 1.5 0 00-.929 1.388V41" stroke="#FF6153" stroke-width="2"></path><path d="M27 21l6.56-6.56a1.5 1.5 0 011.061-.44H39" stroke="#A03027" stroke-width="2"></path><path d="M25 30.5l9.862-6.827c1.326-.919 3.138.03 3.138 1.644V31M25 33.5l7.571 3.117a1.5 1.5 0 01.929 1.388V41M23.5 14.5c0-4.97-3.53-9-8.5-9M24.5 14.5c0-4.97 3.53-9 8.5-9" stroke="#FF6153" stroke-width="2"></path><path d="M19 13a5 5 0 0110 0v2H19v-2z" fill="#FF6153"></path><path d="M23.084 14h1.832a5 5 0 014.486 2.792l1.084 2.201A5 5 0 0131 21.202v6.471c0 2.682-.469 5.342-1.385 7.862l-1.724 4.74a4.14 4.14 0 01-7.782 0l-1.724-4.74A22.999 22.999 0 0117 27.673v-6.471a5 5 0 01.514-2.209l1.084-2.201A5 5 0 0123.084 14z" fill="#FF6153" stroke="#FF6153" stroke-width="2" stroke-linecap="round"></path><mask id="PestControl_svg__a" style="mask-type:alpha" maskUnits="userSpaceOnUse" x="16" y="13" width="16" height="31"><path d="M21.217 14.5h5.566a1.5 1.5 0 011.346.838l1.908 3.876a4.5 4.5 0 01.463 1.988v6.471a22.5 22.5 0 01-1.355 7.691l-1.724 4.74a3.64 3.64 0 01-6.842 0l-1.724-4.74a22.5 22.5 0 01-1.355-7.69v-6.472c0-.69.158-1.37.463-1.988l1.908-3.876a1.5 1.5 0 011.346-.838z" fill="#EC665F" stroke="#EC665F" stroke-width="3" stroke-linecap="round"></path></mask><g mask="url(#PestControl_svg__a)"><path d="M49 14H15v8a8.38 8.38 0 018.036-6h25.963L49 14z" fill="#A03027"></path></g><path d="M24 15v19.5" stroke="#A03027" stroke-width="2" stroke-linecap="square"></path></svg>