<svg xmlns="http://www.w3.org/2000/svg" width="192" height="192" viewBox="0 0 192 192" version="1.1"><path d="M 56 88 L 56 112 75.584 112 L 95.168 112 87.512 106.880 C 74.824 98.394, 68.185 88.165, 65.126 72.393 L 63.500 64.007 59.750 64.003 L 56 64 56 88" stroke="none" fill="#4c24a4" fill-rule="evenodd"/><path d="M 27.400 19.400 L 24 22.800 24 28 L 24 33.200 27.400 36.600 L 30.800 40 36.055 40 L 41.310 40 44.914 36.211 L 48.519 32.422 51.894 33.112 C 56.411 34.036, 61.910 39.694, 63.044 44.585 C 63.544 46.738, 63.963 53.041, 63.976 58.590 C 64.029 81.050, 71.349 96.069, 87.512 106.880 L 95.168 112 102.935 112 C 117.266 112, 120 114.639, 120 128.468 L 120 136 144 136 L 168 136 167.988 123.750 C 167.981 116.252, 167.413 109.384, 166.525 106.045 C 161.301 86.416, 145.584 70.699, 125.955 65.475 L 120.500 64.024 98.119 64.012 L 75.738 64 76.196 53.697 C 76.705 42.246, 78.015 38.874, 83.345 35.283 C 88.406 31.874, 91.002 32.098, 95.150 36.301 L 98.800 40 104 40 L 109.200 40 112.600 36.600 L 116 33.200 116 28 L 116 22.800 112.600 19.400 L 109.200 16 104.135 16 L 99.070 16 95.653 19 L 92.236 22 70 22 L 47.764 22 44.347 19 L 40.930 16 35.865 16 L 30.800 16 27.400 19.400 M 16 88 L 16 128 32.600 128 L 49.200 128 52.600 124.600 L 56 121.200 56 88 L 56 54.800 52.600 51.400 L 49.200 48 32.600 48 L 16 48 16 88 M 141.650 149.188 C 139.613 152.377, 135.245 163.065, 134.984 165.500 C 134.314 171.752, 137.767 176, 143.520 176 C 148.386 176, 150.901 174.482, 152.541 170.555 L 153.914 167.271 152.914 163.885 C 151.395 158.742, 145.655 147.623, 144.314 147.226 C 143.661 147.034, 142.463 147.916, 141.650 149.188" stroke="none" fill="#643bb4" fill-rule="evenodd"/></svg>