<svg xmlns="http://www.w3.org/2000/svg" width="192" height="192" viewBox="0 0 192 192" version="1.1"><path d="" stroke="none" fill="#6c3cb4" fill-rule="evenodd"/><path d="M 44 96 L 44 176 96 176 L 148 176 148 170 L 148 164 142 164 L 136 164 136 158 L 136 152 130 152 L 124 152 124 146 L 124 140 118 140 L 112 140 112 98.048 L 112 56.095 118.099 55.798 L 124.197 55.500 108.414 35.750 L 92.631 16 68.316 16 L 44 16 44 96 M 88 66.923 C 88 68.854, 86.955 70.891, 84.923 72.923 L 81.846 76 78 76 L 74.154 76 71.077 72.923 C 69.334 71.180, 68 68.796, 68 67.423 C 68 66.090, 67.438 65.004, 66.750 65.010 C 65.169 65.022, 56.072 69.428, 53.750 71.306 L 52 72.720 52 88.360 L 52 104 78 104 L 104 104 104 84 L 104 64 96 64 L 88 64 88 66.923 M 52 122 L 52 132 54 132 L 56 132 56 122 L 56 112 54 112 L 52 112 52 122 M 64 122 L 64 132 66 132 L 68 132 68 122 L 68 112 66 112 L 64 112 64 122 M 76 122 L 76 132 78 132 L 80 132 80 122 L 80 112 78 112 L 76 112 76 122 M 88 122 L 88 132 90 132 L 92 132 92 122 L 92 112 90 112 L 88 112 88 122 M 100 122 L 100 132 102 132 L 104 132 104 122 L 104 112 102 112 L 100 112 100 122" stroke="none" fill="#643cb4" fill-rule="evenodd"/></svg>